<mxfile host="app.diagrams.net" modified="2024-02-29T13:06:35.547Z" agent="Mozilla/5.0 (Windows NT 10.0; Win64; x64) AppleWebKit/537.36 (KHTML, like Gecko) Chrome/120.0.0.0 Safari/537.36 Edg/120.0.0.0" etag="oPrDP4KUeMDwwCveOVGB" version="23.1.7" type="github">
  <diagram name="Seite-1" id="yTJefIffp6QYeTwZrcQF">
    <mxGraphModel dx="2800" dy="933" grid="1" gridSize="10" guides="1" tooltips="1" connect="1" arrows="1" fold="1" page="1" pageScale="1" pageWidth="1169" pageHeight="827" math="1" shadow="0">
      <root>
        <mxCell id="0" />
        <mxCell id="1" parent="0" />
        <mxCell id="hqZy1xWen8VTkyq7swMo-4" style="edgeStyle=orthogonalEdgeStyle;rounded=0;orthogonalLoop=1;jettySize=auto;html=1;exitX=1;exitY=0.5;exitDx=0;exitDy=0;strokeColor=none;" parent="1" edge="1">
          <mxGeometry relative="1" as="geometry">
            <mxPoint x="669" y="320" as="targetPoint" />
            <mxPoint x="628" y="320" as="sourcePoint" />
          </mxGeometry>
        </mxCell>
        <mxCell id="hqZy1xWen8VTkyq7swMo-38" style="edgeStyle=orthogonalEdgeStyle;rounded=0;orthogonalLoop=1;jettySize=auto;html=1;exitX=1;exitY=0.5;exitDx=0;exitDy=0;strokeColor=none;" parent="1" edge="1">
          <mxGeometry relative="1" as="geometry">
            <mxPoint x="669.5" y="390" as="targetPoint" />
            <mxPoint x="628.5" y="390" as="sourcePoint" />
          </mxGeometry>
        </mxCell>
        <mxCell id="hqZy1xWen8VTkyq7swMo-55" style="edgeStyle=orthogonalEdgeStyle;rounded=0;orthogonalLoop=1;jettySize=auto;html=1;exitX=1;exitY=0.5;exitDx=0;exitDy=0;strokeColor=none;" parent="1" source="hqZy1xWen8VTkyq7swMo-56" edge="1">
          <mxGeometry relative="1" as="geometry">
            <mxPoint x="189.5" y="320" as="targetPoint" />
          </mxGeometry>
        </mxCell>
        <mxCell id="hqZy1xWen8VTkyq7swMo-56" value="&lt;font style=&quot;font-size: 16px;&quot;&gt;$$ H $$&lt;/font&gt;" style="whiteSpace=wrap;html=1;aspect=fixed;align=center;gradientColor=none;rounded=0;shadow=0;strokeWidth=2;" parent="1" vertex="1">
          <mxGeometry x="100" y="290" width="60" height="60" as="geometry" />
        </mxCell>
        <mxCell id="hqZy1xWen8VTkyq7swMo-57" value="&lt;font style=&quot;font-size: 16px;&quot;&gt;$$ R_x (x) $$&lt;/font&gt;" style="whiteSpace=wrap;html=1;aspect=fixed;align=center;gradientColor=none;rounded=0;shadow=0;strokeWidth=2;" parent="1" vertex="1">
          <mxGeometry x="189.5" y="290" width="60" height="60" as="geometry" />
        </mxCell>
        <mxCell id="hqZy1xWen8VTkyq7swMo-58" value="&lt;span style=&quot;color: rgb(0, 0, 0); font-family: Helvetica; font-style: normal; font-variant-ligatures: normal; font-variant-caps: normal; font-weight: 400; letter-spacing: normal; orphans: 2; text-align: center; text-indent: 0px; text-transform: none; widows: 2; word-spacing: 0px; -webkit-text-stroke-width: 0px; background-color: rgb(251, 251, 251); text-decoration-thickness: initial; text-decoration-style: initial; text-decoration-color: initial; float: none; display: inline !important;&quot;&gt;&lt;font style=&quot;font-size: 16px;&quot;&gt;$$ R_y (\theta_i) $$&lt;/font&gt;&lt;/span&gt;" style="whiteSpace=wrap;html=1;aspect=fixed;align=center;gradientColor=none;rounded=0;shadow=0;strokeWidth=2;" parent="1" vertex="1">
          <mxGeometry x="310" y="290" width="60" height="60" as="geometry" />
        </mxCell>
        <mxCell id="hqZy1xWen8VTkyq7swMo-59" style="edgeStyle=orthogonalEdgeStyle;rounded=0;orthogonalLoop=1;jettySize=auto;html=1;exitX=1;exitY=0.5;exitDx=0;exitDy=0;strokeColor=none;" parent="1" source="hqZy1xWen8VTkyq7swMo-60" edge="1">
          <mxGeometry relative="1" as="geometry">
            <mxPoint x="190" y="390" as="targetPoint" />
          </mxGeometry>
        </mxCell>
        <mxCell id="hqZy1xWen8VTkyq7swMo-60" value="&lt;span style=&quot;color: rgb(0, 0, 0); font-family: Helvetica; font-style: normal; font-variant-ligatures: normal; font-variant-caps: normal; font-weight: 400; letter-spacing: normal; orphans: 2; text-align: center; text-indent: 0px; text-transform: none; widows: 2; word-spacing: 0px; -webkit-text-stroke-width: 0px; background-color: rgb(251, 251, 251); text-decoration-thickness: initial; text-decoration-style: initial; text-decoration-color: initial; float: none; display: inline !important;&quot;&gt;&lt;font style=&quot;font-size: 16px;&quot;&gt;$$ H $$&lt;/font&gt;&lt;/span&gt;" style="whiteSpace=wrap;html=1;aspect=fixed;align=center;gradientColor=none;rounded=0;shadow=0;strokeWidth=2;" parent="1" vertex="1">
          <mxGeometry x="100" y="370" width="60" height="60" as="geometry" />
        </mxCell>
        <mxCell id="hqZy1xWen8VTkyq7swMo-61" value="&lt;span style=&quot;color: rgb(0, 0, 0); font-family: Helvetica; font-style: normal; font-variant-ligatures: normal; font-variant-caps: normal; font-weight: 400; letter-spacing: normal; orphans: 2; text-align: center; text-indent: 0px; text-transform: none; widows: 2; word-spacing: 0px; -webkit-text-stroke-width: 0px; background-color: rgb(251, 251, 251); text-decoration-thickness: initial; text-decoration-style: initial; text-decoration-color: initial; float: none; display: inline !important;&quot;&gt;&lt;font style=&quot;font-size: 16px;&quot;&gt;$$ R_x (x) $$&lt;/font&gt;&lt;/span&gt;" style="whiteSpace=wrap;html=1;aspect=fixed;align=center;gradientColor=none;rounded=0;shadow=0;strokeWidth=2;" parent="1" vertex="1">
          <mxGeometry x="189.5" y="370" width="60" height="60" as="geometry" />
        </mxCell>
        <mxCell id="hqZy1xWen8VTkyq7swMo-62" value="&lt;span style=&quot;color: rgb(0, 0, 0); font-family: Helvetica; font-style: normal; font-variant-ligatures: normal; font-variant-caps: normal; font-weight: 400; letter-spacing: normal; orphans: 2; text-align: center; text-indent: 0px; text-transform: none; widows: 2; word-spacing: 0px; -webkit-text-stroke-width: 0px; background-color: rgb(251, 251, 251); text-decoration-thickness: initial; text-decoration-style: initial; text-decoration-color: initial; float: none; display: inline !important;&quot;&gt;&lt;font style=&quot;font-size: 16px;&quot;&gt;$$ R_y (\theta_i) $$&lt;/font&gt;&lt;/span&gt;" style="whiteSpace=wrap;html=1;aspect=fixed;align=center;gradientColor=none;rounded=0;shadow=0;strokeWidth=2;" parent="1" vertex="1">
          <mxGeometry x="310" y="370" width="60" height="60" as="geometry" />
        </mxCell>
        <mxCell id="hqZy1xWen8VTkyq7swMo-63" value="" style="endArrow=none;html=1;rounded=0;startArrow=circlePlus;startFill=0;strokeWidth=2;" parent="1" edge="1">
          <mxGeometry width="50" height="50" relative="1" as="geometry">
            <mxPoint x="280.5" y="410" as="sourcePoint" />
            <mxPoint x="280" y="360" as="targetPoint" />
            <Array as="points">
              <mxPoint x="280" y="360" />
              <mxPoint x="280" y="320" />
            </Array>
          </mxGeometry>
        </mxCell>
        <mxCell id="hqZy1xWen8VTkyq7swMo-79" value="" style="endArrow=block;html=1;rounded=0;entryX=0.5;entryY=0;entryDx=0;entryDy=0;endFill=1;" parent="1" edge="1" target="hqZy1xWen8VTkyq7swMo-81">
          <mxGeometry relative="1" as="geometry">
            <mxPoint x="219.3" y="430" as="sourcePoint" />
            <mxPoint x="219.41000000000003" y="500" as="targetPoint" />
          </mxGeometry>
        </mxCell>
        <mxCell id="hqZy1xWen8VTkyq7swMo-80" value="&lt;font style=&quot;font-size: 16px;&quot;&gt;$$ \mathrm{hidden-state} $$&lt;/font&gt;" style="edgeLabel;resizable=0;html=1;;align=center;verticalAlign=middle;" parent="hqZy1xWen8VTkyq7swMo-79" connectable="0" vertex="1">
          <mxGeometry relative="1" as="geometry" />
        </mxCell>
        <mxCell id="hqZy1xWen8VTkyq7swMo-81" value="&lt;font style=&quot;font-size: 16px;&quot;&gt;$$ s^0_t $$&lt;/font&gt;" style="ellipse;whiteSpace=wrap;html=1;aspect=fixed;fillColor=#d5e8d4;strokeColor=#82b366;strokeWidth=2;" parent="1" vertex="1">
          <mxGeometry x="200" y="510" width="40" height="40" as="geometry" />
        </mxCell>
        <mxCell id="hqZy1xWen8VTkyq7swMo-83" value="" style="endArrow=block;html=1;rounded=0;exitX=0.5;exitY=1;exitDx=0;exitDy=0;strokeWidth=2;curved=0;endFill=1;" parent="1" source="hqZy1xWen8VTkyq7swMo-81" edge="1">
          <mxGeometry width="50" height="50" relative="1" as="geometry">
            <mxPoint x="200" y="590" as="sourcePoint" />
            <mxPoint x="160" y="630" as="targetPoint" />
          </mxGeometry>
        </mxCell>
        <mxCell id="hqZy1xWen8VTkyq7swMo-84" value="" style="endArrow=block;html=1;rounded=0;strokeWidth=2;endFill=1;" parent="1" edge="1">
          <mxGeometry width="50" height="50" relative="1" as="geometry">
            <mxPoint x="160" y="630" as="sourcePoint" />
            <mxPoint x="130" y="670" as="targetPoint" />
          </mxGeometry>
        </mxCell>
        <mxCell id="hqZy1xWen8VTkyq7swMo-85" value="" style="endArrow=block;html=1;rounded=0;strokeWidth=2;endFill=1;" parent="1" edge="1" source="6n01bUx9wQHi-D7Y9jeE-55">
          <mxGeometry width="50" height="50" relative="1" as="geometry">
            <mxPoint x="130.25" y="670" as="sourcePoint" />
            <mxPoint x="110" y="710" as="targetPoint" />
          </mxGeometry>
        </mxCell>
        <mxCell id="hqZy1xWen8VTkyq7swMo-86" value="" style="endArrow=block;html=1;rounded=0;strokeWidth=2;endFill=1;" parent="1" edge="1">
          <mxGeometry width="50" height="50" relative="1" as="geometry">
            <mxPoint x="220" y="550" as="sourcePoint" />
            <mxPoint x="280" y="630" as="targetPoint" />
          </mxGeometry>
        </mxCell>
        <mxCell id="hqZy1xWen8VTkyq7swMo-89" value="" style="endArrow=block;html=1;rounded=0;strokeWidth=2;endFill=1;" parent="1" edge="1">
          <mxGeometry width="50" height="50" relative="1" as="geometry">
            <mxPoint x="160" y="630" as="sourcePoint" />
            <mxPoint x="190" y="670" as="targetPoint" />
          </mxGeometry>
        </mxCell>
        <mxCell id="hqZy1xWen8VTkyq7swMo-90" value="" style="endArrow=block;html=1;rounded=0;strokeWidth=2;endFill=1;" parent="1" edge="1">
          <mxGeometry width="50" height="50" relative="1" as="geometry">
            <mxPoint x="130" y="670" as="sourcePoint" />
            <mxPoint x="150" y="710" as="targetPoint" />
          </mxGeometry>
        </mxCell>
        <mxCell id="hqZy1xWen8VTkyq7swMo-91" value="" style="endArrow=block;html=1;rounded=0;strokeWidth=2;endFill=1;" parent="1" edge="1">
          <mxGeometry width="50" height="50" relative="1" as="geometry">
            <mxPoint x="190" y="670" as="sourcePoint" />
            <mxPoint x="170" y="710" as="targetPoint" />
          </mxGeometry>
        </mxCell>
        <mxCell id="hqZy1xWen8VTkyq7swMo-94" value="" style="endArrow=block;html=1;rounded=0;strokeWidth=2;endFill=1;" parent="1" edge="1">
          <mxGeometry width="50" height="50" relative="1" as="geometry">
            <mxPoint x="190" y="670" as="sourcePoint" />
            <mxPoint x="210.5" y="710" as="targetPoint" />
          </mxGeometry>
        </mxCell>
        <mxCell id="hqZy1xWen8VTkyq7swMo-111" value="" style="endArrow=block;html=1;rounded=0;entryX=0.5;entryY=0;entryDx=0;entryDy=0;endFill=1;" parent="1" edge="1" target="hqZy1xWen8VTkyq7swMo-113">
          <mxGeometry relative="1" as="geometry">
            <mxPoint x="778.89" y="430" as="sourcePoint" />
            <mxPoint x="779" y="500" as="targetPoint" />
          </mxGeometry>
        </mxCell>
        <mxCell id="hqZy1xWen8VTkyq7swMo-112" value="&lt;font style=&quot;font-size: 16px;&quot;&gt;$$ \mathrm{hidden-state} $$&lt;/font&gt;" style="edgeLabel;resizable=0;html=1;;align=center;verticalAlign=middle;" parent="hqZy1xWen8VTkyq7swMo-111" connectable="0" vertex="1">
          <mxGeometry relative="1" as="geometry" />
        </mxCell>
        <mxCell id="hqZy1xWen8VTkyq7swMo-113" value="&lt;font style=&quot;font-size: 16px;&quot;&gt;$$ s^0_{t+1} $$&lt;/font&gt;" style="ellipse;whiteSpace=wrap;html=1;aspect=fixed;fillColor=#d5e8d4;strokeColor=#82b366;strokeWidth=2;" parent="1" vertex="1">
          <mxGeometry x="759" y="510" width="40" height="40" as="geometry" />
        </mxCell>
        <mxCell id="hqZy1xWen8VTkyq7swMo-130" value="" style="endArrow=classic;html=1;rounded=0;strokeWidth=4;shadow=0;curved=0;fillColor=#dae8fc;strokeColor=#6c8ebf;targetPerimeterSpacing=0;" parent="1" edge="1">
          <mxGeometry width="50" height="50" relative="1" as="geometry">
            <mxPoint x="221" y="580" as="sourcePoint" />
            <mxPoint x="221" y="740" as="targetPoint" />
          </mxGeometry>
        </mxCell>
        <mxCell id="hqZy1xWen8VTkyq7swMo-131" value="" style="endArrow=classic;html=1;rounded=0;strokeWidth=4;shadow=0;curved=0;fillColor=#dae8fc;strokeColor=#6c8ebf;" parent="1" edge="1">
          <mxGeometry width="50" height="50" relative="1" as="geometry">
            <mxPoint x="778.52" y="570" as="sourcePoint" />
            <mxPoint x="778.52" y="730" as="targetPoint" />
          </mxGeometry>
        </mxCell>
        <mxCell id="hqZy1xWen8VTkyq7swMo-132" value="" style="endArrow=classic;html=1;rounded=0;strokeWidth=2;shadow=0;curved=0;" parent="1" edge="1">
          <mxGeometry width="50" height="50" relative="1" as="geometry">
            <mxPoint x="409" y="360" as="sourcePoint" />
            <mxPoint x="539" y="360" as="targetPoint" />
          </mxGeometry>
        </mxCell>
        <mxCell id="hqZy1xWen8VTkyq7swMo-134" value="" style="endArrow=classic;html=1;rounded=0;strokeWidth=2;shadow=0;curved=0;dashed=1;fillColor=#f5f5f5;strokeColor=#666666;" parent="1" edge="1">
          <mxGeometry width="50" height="50" relative="1" as="geometry">
            <mxPoint y="360" as="sourcePoint" />
            <mxPoint x="59" y="360" as="targetPoint" />
          </mxGeometry>
        </mxCell>
        <mxCell id="hqZy1xWen8VTkyq7swMo-138" value="" style="curved=1;endArrow=classic;html=1;rounded=0;strokeWidth=2;" parent="1" edge="1" source="6n01bUx9wQHi-D7Y9jeE-44">
          <mxGeometry width="50" height="50" relative="1" as="geometry">
            <mxPoint x="359" y="780" as="sourcePoint" />
            <mxPoint x="470" y="370" as="targetPoint" />
            <Array as="points" />
          </mxGeometry>
        </mxCell>
        <mxCell id="hqZy1xWen8VTkyq7swMo-147" value="" style="strokeWidth=2;html=1;shape=mxgraph.flowchart.database;whiteSpace=wrap;fillColor=#dae8fc;strokeColor=#6c8ebf;" parent="1" vertex="1">
          <mxGeometry x="119" y="797" width="30" height="30" as="geometry" />
        </mxCell>
        <mxCell id="hqZy1xWen8VTkyq7swMo-149" value="" style="strokeWidth=2;html=1;shape=mxgraph.flowchart.database;whiteSpace=wrap;fillColor=#dae8fc;strokeColor=#6c8ebf;" parent="1" vertex="1">
          <mxGeometry x="279" y="787" width="30" height="40" as="geometry" />
        </mxCell>
        <mxCell id="hqZy1xWen8VTkyq7swMo-150" value="" style="strokeWidth=2;html=1;shape=mxgraph.flowchart.database;whiteSpace=wrap;fillColor=#dae8fc;strokeColor=#6c8ebf;" parent="1" vertex="1">
          <mxGeometry x="159" y="787" width="30" height="40" as="geometry" />
        </mxCell>
        <mxCell id="hqZy1xWen8VTkyq7swMo-151" value="" style="strokeWidth=2;html=1;shape=mxgraph.flowchart.database;whiteSpace=wrap;fillColor=#dae8fc;strokeColor=#6c8ebf;" parent="1" vertex="1">
          <mxGeometry x="239" y="747" width="30" height="80" as="geometry" />
        </mxCell>
        <mxCell id="hqZy1xWen8VTkyq7swMo-152" value="" style="strokeWidth=2;html=1;shape=mxgraph.flowchart.database;whiteSpace=wrap;fillColor=#dae8fc;strokeColor=#6c8ebf;" parent="1" vertex="1">
          <mxGeometry x="199" y="767" width="30" height="60" as="geometry" />
        </mxCell>
        <mxCell id="hqZy1xWen8VTkyq7swMo-162" value="" style="shape=curlyBracket;whiteSpace=wrap;html=1;rounded=1;flipH=1;labelPosition=right;verticalLabelPosition=middle;align=left;verticalAlign=middle;strokeWidth=2;" parent="1" vertex="1">
          <mxGeometry x="869" y="739" width="21" height="88" as="geometry" />
        </mxCell>
        <mxCell id="hqZy1xWen8VTkyq7swMo-163" value="" style="shape=curlyBracket;whiteSpace=wrap;html=1;rounded=1;labelPosition=left;verticalLabelPosition=middle;align=right;verticalAlign=middle;strokeWidth=2;" parent="1" vertex="1">
          <mxGeometry x="659" y="737" width="20" height="90" as="geometry" />
        </mxCell>
        <mxCell id="hqZy1xWen8VTkyq7swMo-164" value="" style="strokeWidth=2;html=1;shape=mxgraph.flowchart.database;whiteSpace=wrap;fillColor=#dae8fc;strokeColor=#6c8ebf;" parent="1" vertex="1">
          <mxGeometry x="679" y="792" width="30" height="30" as="geometry" />
        </mxCell>
        <mxCell id="hqZy1xWen8VTkyq7swMo-165" value="" style="strokeWidth=2;html=1;shape=mxgraph.flowchart.database;whiteSpace=wrap;fillColor=#dae8fc;strokeColor=#6c8ebf;" parent="1" vertex="1">
          <mxGeometry x="839" y="792" width="30" height="30" as="geometry" />
        </mxCell>
        <mxCell id="hqZy1xWen8VTkyq7swMo-166" value="" style="strokeWidth=2;html=1;shape=mxgraph.flowchart.database;whiteSpace=wrap;fillColor=#dae8fc;strokeColor=#6c8ebf;" parent="1" vertex="1">
          <mxGeometry x="719" y="782" width="30" height="40" as="geometry" />
        </mxCell>
        <mxCell id="hqZy1xWen8VTkyq7swMo-167" value="" style="strokeWidth=2;html=1;shape=mxgraph.flowchart.database;whiteSpace=wrap;fillColor=#dae8fc;strokeColor=#6c8ebf;" parent="1" vertex="1">
          <mxGeometry x="799" y="802" width="30" height="20" as="geometry" />
        </mxCell>
        <mxCell id="hqZy1xWen8VTkyq7swMo-168" value="" style="strokeWidth=2;html=1;shape=mxgraph.flowchart.database;whiteSpace=wrap;fillColor=#dae8fc;strokeColor=#6c8ebf;" parent="1" vertex="1">
          <mxGeometry x="759" y="742" width="30" height="80" as="geometry" />
        </mxCell>
        <mxCell id="hqZy1xWen8VTkyq7swMo-169" value="&lt;font style=&quot;font-size: 16px;&quot;&gt;$$ \Pi_t $$&lt;/font&gt;" style="text;html=1;align=center;verticalAlign=middle;resizable=0;points=[];autosize=1;strokeColor=none;fillColor=none;" parent="1" vertex="1">
          <mxGeometry x="18.5" y="765" width="100" height="30" as="geometry" />
        </mxCell>
        <mxCell id="hqZy1xWen8VTkyq7swMo-170" value="&lt;span style=&quot;color: rgb(0, 0, 0); font-family: Helvetica; font-style: normal; font-variant-ligatures: normal; font-variant-caps: normal; font-weight: 400; letter-spacing: normal; orphans: 2; text-align: center; text-indent: 0px; text-transform: none; widows: 2; word-spacing: 0px; -webkit-text-stroke-width: 0px; background-color: rgb(251, 251, 251); text-decoration-thickness: initial; text-decoration-style: initial; text-decoration-color: initial; float: none; display: inline !important;&quot;&gt;&lt;font style=&quot;font-size: 16px;&quot;&gt;$$ \Pi_{t+1} $$&lt;/font&gt;&lt;/span&gt;" style="text;whiteSpace=wrap;html=1;" parent="1" vertex="1">
          <mxGeometry x="610" y="747" width="90" height="40" as="geometry" />
        </mxCell>
        <mxCell id="6n01bUx9wQHi-D7Y9jeE-3" value="" style="endArrow=none;html=1;rounded=0;" edge="1" parent="1">
          <mxGeometry width="50" height="50" relative="1" as="geometry">
            <mxPoint x="160" y="319.8" as="sourcePoint" />
            <mxPoint x="190" y="319.8" as="targetPoint" />
          </mxGeometry>
        </mxCell>
        <mxCell id="6n01bUx9wQHi-D7Y9jeE-4" value="" style="endArrow=none;html=1;rounded=0;" edge="1" parent="1">
          <mxGeometry width="50" height="50" relative="1" as="geometry">
            <mxPoint x="159.5" y="399.8" as="sourcePoint" />
            <mxPoint x="189.5" y="399.8" as="targetPoint" />
          </mxGeometry>
        </mxCell>
        <mxCell id="6n01bUx9wQHi-D7Y9jeE-7" value="" style="endArrow=none;html=1;rounded=0;" edge="1" parent="1">
          <mxGeometry width="50" height="50" relative="1" as="geometry">
            <mxPoint x="370" y="319.83000000000004" as="sourcePoint" />
            <mxPoint x="400" y="319.83000000000004" as="targetPoint" />
          </mxGeometry>
        </mxCell>
        <mxCell id="6n01bUx9wQHi-D7Y9jeE-8" value="" style="endArrow=none;html=1;rounded=0;" edge="1" parent="1">
          <mxGeometry width="50" height="50" relative="1" as="geometry">
            <mxPoint x="370" y="399.83000000000004" as="sourcePoint" />
            <mxPoint x="400" y="399.83000000000004" as="targetPoint" />
          </mxGeometry>
        </mxCell>
        <mxCell id="6n01bUx9wQHi-D7Y9jeE-9" value="" style="endArrow=none;html=1;rounded=0;" edge="1" parent="1">
          <mxGeometry width="50" height="50" relative="1" as="geometry">
            <mxPoint x="70" y="319.83000000000004" as="sourcePoint" />
            <mxPoint x="100" y="319.83000000000004" as="targetPoint" />
          </mxGeometry>
        </mxCell>
        <mxCell id="6n01bUx9wQHi-D7Y9jeE-11" value="&lt;font style=&quot;font-size: 16px;&quot;&gt;$$ \ket{0}$$&lt;/font&gt;" style="text;html=1;align=center;verticalAlign=middle;resizable=0;points=[];autosize=1;strokeColor=none;fillColor=none;" vertex="1" parent="1">
          <mxGeometry y="305" width="110" height="30" as="geometry" />
        </mxCell>
        <mxCell id="6n01bUx9wQHi-D7Y9jeE-12" value="&lt;font style=&quot;font-size: 16px;&quot;&gt;$$ \ket{0}$$&lt;/font&gt;" style="text;html=1;align=center;verticalAlign=middle;resizable=0;points=[];autosize=1;strokeColor=none;fillColor=none;" vertex="1" parent="1">
          <mxGeometry y="385" width="110" height="30" as="geometry" />
        </mxCell>
        <mxCell id="6n01bUx9wQHi-D7Y9jeE-15" value="" style="endArrow=none;html=1;rounded=0;" edge="1" parent="1">
          <mxGeometry width="50" height="50" relative="1" as="geometry">
            <mxPoint x="70" y="399.83" as="sourcePoint" />
            <mxPoint x="100" y="399.83" as="targetPoint" />
          </mxGeometry>
        </mxCell>
        <mxCell id="6n01bUx9wQHi-D7Y9jeE-16" value="" style="endArrow=none;html=1;rounded=0;" edge="1" parent="1">
          <mxGeometry width="50" height="50" relative="1" as="geometry">
            <mxPoint x="250.5" y="319.83000000000004" as="sourcePoint" />
            <mxPoint x="311" y="319.83000000000004" as="targetPoint" />
          </mxGeometry>
        </mxCell>
        <mxCell id="6n01bUx9wQHi-D7Y9jeE-17" value="" style="endArrow=none;html=1;rounded=0;" edge="1" parent="1">
          <mxGeometry width="50" height="50" relative="1" as="geometry">
            <mxPoint x="249.5" y="399.66" as="sourcePoint" />
            <mxPoint x="310" y="399.66" as="targetPoint" />
          </mxGeometry>
        </mxCell>
        <mxCell id="6n01bUx9wQHi-D7Y9jeE-18" style="edgeStyle=orthogonalEdgeStyle;rounded=0;orthogonalLoop=1;jettySize=auto;html=1;exitX=1;exitY=0.5;exitDx=0;exitDy=0;strokeColor=none;" edge="1" parent="1" source="6n01bUx9wQHi-D7Y9jeE-19">
          <mxGeometry relative="1" as="geometry">
            <mxPoint x="689.5" y="320" as="targetPoint" />
          </mxGeometry>
        </mxCell>
        <mxCell id="6n01bUx9wQHi-D7Y9jeE-19" value="&lt;font style=&quot;font-size: 16px;&quot;&gt;$$ H $$&lt;/font&gt;" style="whiteSpace=wrap;html=1;aspect=fixed;align=center;gradientColor=none;rounded=0;shadow=0;strokeWidth=2;" vertex="1" parent="1">
          <mxGeometry x="600" y="290" width="60" height="60" as="geometry" />
        </mxCell>
        <mxCell id="6n01bUx9wQHi-D7Y9jeE-20" value="&lt;font style=&quot;font-size: 16px;&quot;&gt;$$ R_x (x) $$&lt;/font&gt;" style="whiteSpace=wrap;html=1;aspect=fixed;align=center;gradientColor=none;rounded=0;shadow=0;strokeWidth=2;" vertex="1" parent="1">
          <mxGeometry x="689.5" y="290" width="60" height="60" as="geometry" />
        </mxCell>
        <mxCell id="6n01bUx9wQHi-D7Y9jeE-21" value="&lt;span style=&quot;color: rgb(0, 0, 0); font-family: Helvetica; font-style: normal; font-variant-ligatures: normal; font-variant-caps: normal; font-weight: 400; letter-spacing: normal; orphans: 2; text-align: center; text-indent: 0px; text-transform: none; widows: 2; word-spacing: 0px; -webkit-text-stroke-width: 0px; background-color: rgb(251, 251, 251); text-decoration-thickness: initial; text-decoration-style: initial; text-decoration-color: initial; float: none; display: inline !important;&quot;&gt;&lt;font style=&quot;font-size: 16px;&quot;&gt;$$ R_y (\theta_i) $$&lt;/font&gt;&lt;/span&gt;" style="whiteSpace=wrap;html=1;aspect=fixed;align=center;gradientColor=none;rounded=0;shadow=0;strokeWidth=2;" vertex="1" parent="1">
          <mxGeometry x="810" y="290" width="60" height="60" as="geometry" />
        </mxCell>
        <mxCell id="6n01bUx9wQHi-D7Y9jeE-22" style="edgeStyle=orthogonalEdgeStyle;rounded=0;orthogonalLoop=1;jettySize=auto;html=1;exitX=1;exitY=0.5;exitDx=0;exitDy=0;strokeColor=none;" edge="1" parent="1" source="6n01bUx9wQHi-D7Y9jeE-23">
          <mxGeometry relative="1" as="geometry">
            <mxPoint x="690" y="390" as="targetPoint" />
          </mxGeometry>
        </mxCell>
        <mxCell id="6n01bUx9wQHi-D7Y9jeE-23" value="&lt;span style=&quot;color: rgb(0, 0, 0); font-family: Helvetica; font-style: normal; font-variant-ligatures: normal; font-variant-caps: normal; font-weight: 400; letter-spacing: normal; orphans: 2; text-align: center; text-indent: 0px; text-transform: none; widows: 2; word-spacing: 0px; -webkit-text-stroke-width: 0px; background-color: rgb(251, 251, 251); text-decoration-thickness: initial; text-decoration-style: initial; text-decoration-color: initial; float: none; display: inline !important;&quot;&gt;&lt;font style=&quot;font-size: 16px;&quot;&gt;$$ H $$&lt;/font&gt;&lt;/span&gt;" style="whiteSpace=wrap;html=1;aspect=fixed;align=center;gradientColor=none;rounded=0;shadow=0;strokeWidth=2;" vertex="1" parent="1">
          <mxGeometry x="600" y="370" width="60" height="60" as="geometry" />
        </mxCell>
        <mxCell id="6n01bUx9wQHi-D7Y9jeE-24" value="&lt;span style=&quot;color: rgb(0, 0, 0); font-family: Helvetica; font-style: normal; font-variant-ligatures: normal; font-variant-caps: normal; font-weight: 400; letter-spacing: normal; orphans: 2; text-align: center; text-indent: 0px; text-transform: none; widows: 2; word-spacing: 0px; -webkit-text-stroke-width: 0px; background-color: rgb(251, 251, 251); text-decoration-thickness: initial; text-decoration-style: initial; text-decoration-color: initial; float: none; display: inline !important;&quot;&gt;&lt;font style=&quot;font-size: 16px;&quot;&gt;$$ R_x (x) $$&lt;/font&gt;&lt;/span&gt;" style="whiteSpace=wrap;html=1;aspect=fixed;align=center;gradientColor=none;rounded=0;shadow=0;strokeWidth=2;" vertex="1" parent="1">
          <mxGeometry x="689.5" y="370" width="60" height="60" as="geometry" />
        </mxCell>
        <mxCell id="6n01bUx9wQHi-D7Y9jeE-25" value="&lt;span style=&quot;color: rgb(0, 0, 0); font-family: Helvetica; font-style: normal; font-variant-ligatures: normal; font-variant-caps: normal; font-weight: 400; letter-spacing: normal; orphans: 2; text-align: center; text-indent: 0px; text-transform: none; widows: 2; word-spacing: 0px; -webkit-text-stroke-width: 0px; background-color: rgb(251, 251, 251); text-decoration-thickness: initial; text-decoration-style: initial; text-decoration-color: initial; float: none; display: inline !important;&quot;&gt;&lt;font style=&quot;font-size: 16px;&quot;&gt;$$ R_y (\theta_i) $$&lt;/font&gt;&lt;/span&gt;" style="whiteSpace=wrap;html=1;aspect=fixed;align=center;gradientColor=none;rounded=0;shadow=0;strokeWidth=2;" vertex="1" parent="1">
          <mxGeometry x="810" y="370" width="60" height="60" as="geometry" />
        </mxCell>
        <mxCell id="6n01bUx9wQHi-D7Y9jeE-26" value="" style="endArrow=none;html=1;rounded=0;startArrow=circlePlus;startFill=0;strokeWidth=2;" edge="1" parent="1">
          <mxGeometry width="50" height="50" relative="1" as="geometry">
            <mxPoint x="780.5" y="410" as="sourcePoint" />
            <mxPoint x="780" y="360" as="targetPoint" />
            <Array as="points">
              <mxPoint x="780" y="360" />
              <mxPoint x="780" y="320" />
            </Array>
          </mxGeometry>
        </mxCell>
        <mxCell id="6n01bUx9wQHi-D7Y9jeE-27" value="" style="endArrow=none;html=1;rounded=0;" edge="1" parent="1">
          <mxGeometry width="50" height="50" relative="1" as="geometry">
            <mxPoint x="660" y="319.8" as="sourcePoint" />
            <mxPoint x="690" y="319.8" as="targetPoint" />
          </mxGeometry>
        </mxCell>
        <mxCell id="6n01bUx9wQHi-D7Y9jeE-28" value="" style="endArrow=none;html=1;rounded=0;" edge="1" parent="1">
          <mxGeometry width="50" height="50" relative="1" as="geometry">
            <mxPoint x="659.5" y="399.8" as="sourcePoint" />
            <mxPoint x="689.5" y="399.8" as="targetPoint" />
          </mxGeometry>
        </mxCell>
        <mxCell id="6n01bUx9wQHi-D7Y9jeE-29" value="" style="endArrow=none;html=1;rounded=0;" edge="1" parent="1">
          <mxGeometry width="50" height="50" relative="1" as="geometry">
            <mxPoint x="870" y="319.83000000000004" as="sourcePoint" />
            <mxPoint x="900" y="319.83000000000004" as="targetPoint" />
          </mxGeometry>
        </mxCell>
        <mxCell id="6n01bUx9wQHi-D7Y9jeE-30" value="" style="endArrow=none;html=1;rounded=0;" edge="1" parent="1">
          <mxGeometry width="50" height="50" relative="1" as="geometry">
            <mxPoint x="870" y="399.83000000000004" as="sourcePoint" />
            <mxPoint x="900" y="399.83000000000004" as="targetPoint" />
          </mxGeometry>
        </mxCell>
        <mxCell id="6n01bUx9wQHi-D7Y9jeE-31" value="" style="endArrow=none;html=1;rounded=0;" edge="1" parent="1">
          <mxGeometry width="50" height="50" relative="1" as="geometry">
            <mxPoint x="570" y="319.83000000000004" as="sourcePoint" />
            <mxPoint x="600" y="319.83000000000004" as="targetPoint" />
          </mxGeometry>
        </mxCell>
        <mxCell id="6n01bUx9wQHi-D7Y9jeE-32" value="" style="endArrow=none;html=1;rounded=0;" edge="1" parent="1">
          <mxGeometry width="50" height="50" relative="1" as="geometry">
            <mxPoint x="570" y="399.83" as="sourcePoint" />
            <mxPoint x="600" y="399.83" as="targetPoint" />
          </mxGeometry>
        </mxCell>
        <mxCell id="6n01bUx9wQHi-D7Y9jeE-33" value="" style="endArrow=none;html=1;rounded=0;" edge="1" parent="1">
          <mxGeometry width="50" height="50" relative="1" as="geometry">
            <mxPoint x="750.5" y="319.83000000000004" as="sourcePoint" />
            <mxPoint x="811" y="319.83000000000004" as="targetPoint" />
          </mxGeometry>
        </mxCell>
        <mxCell id="6n01bUx9wQHi-D7Y9jeE-34" value="" style="endArrow=none;html=1;rounded=0;" edge="1" parent="1">
          <mxGeometry width="50" height="50" relative="1" as="geometry">
            <mxPoint x="749.5" y="399.66" as="sourcePoint" />
            <mxPoint x="810" y="399.66" as="targetPoint" />
          </mxGeometry>
        </mxCell>
        <mxCell id="6n01bUx9wQHi-D7Y9jeE-37" value="&lt;span style=&quot;color: rgb(0, 0, 0); font-family: Helvetica; font-style: normal; font-variant-ligatures: normal; font-variant-caps: normal; font-weight: 400; letter-spacing: normal; orphans: 2; text-align: center; text-indent: 0px; text-transform: none; widows: 2; word-spacing: 0px; -webkit-text-stroke-width: 0px; background-color: rgb(251, 251, 251); text-decoration-thickness: initial; text-decoration-style: initial; text-decoration-color: initial; float: none; display: inline !important;&quot;&gt;&lt;font style=&quot;font-size: 16px;&quot;&gt;$$ R_z (\theta_j) $$&lt;/font&gt;&lt;/span&gt;" style="whiteSpace=wrap;html=1;aspect=fixed;align=center;rounded=0;shadow=0;strokeWidth=2;fillColor=#ffe6cc;strokeColor=#d79b00;" vertex="1" parent="1">
          <mxGeometry x="900" y="290" width="60" height="60" as="geometry" />
        </mxCell>
        <mxCell id="6n01bUx9wQHi-D7Y9jeE-38" value="&lt;span style=&quot;color: rgb(0, 0, 0); font-family: Helvetica; font-style: normal; font-variant-ligatures: normal; font-variant-caps: normal; font-weight: 400; letter-spacing: normal; orphans: 2; text-align: center; text-indent: 0px; text-transform: none; widows: 2; word-spacing: 0px; -webkit-text-stroke-width: 0px; background-color: rgb(251, 251, 251); text-decoration-thickness: initial; text-decoration-style: initial; text-decoration-color: initial; float: none; display: inline !important;&quot;&gt;&lt;font style=&quot;font-size: 16px;&quot;&gt;$$ R_z (\theta_j) $$&lt;/font&gt;&lt;/span&gt;" style="whiteSpace=wrap;html=1;aspect=fixed;align=center;rounded=0;shadow=0;strokeWidth=2;fillColor=#ffe6cc;strokeColor=#d79b00;" vertex="1" parent="1">
          <mxGeometry x="900" y="370" width="60" height="60" as="geometry" />
        </mxCell>
        <mxCell id="6n01bUx9wQHi-D7Y9jeE-39" value="" style="endArrow=none;html=1;rounded=0;" edge="1" parent="1">
          <mxGeometry width="50" height="50" relative="1" as="geometry">
            <mxPoint x="960" y="399.71000000000004" as="sourcePoint" />
            <mxPoint x="990" y="399.71000000000004" as="targetPoint" />
          </mxGeometry>
        </mxCell>
        <mxCell id="6n01bUx9wQHi-D7Y9jeE-40" value="" style="endArrow=none;html=1;rounded=0;" edge="1" parent="1">
          <mxGeometry width="50" height="50" relative="1" as="geometry">
            <mxPoint x="960" y="319.71000000000004" as="sourcePoint" />
            <mxPoint x="990" y="319.71000000000004" as="targetPoint" />
          </mxGeometry>
        </mxCell>
        <mxCell id="6n01bUx9wQHi-D7Y9jeE-41" value="&lt;font style=&quot;font-size: 16px;&quot;&gt;$$ \ket{0}$$&lt;/font&gt;" style="text;html=1;align=center;verticalAlign=middle;resizable=0;points=[];autosize=1;strokeColor=none;fillColor=none;" vertex="1" parent="1">
          <mxGeometry x="500" y="305" width="110" height="30" as="geometry" />
        </mxCell>
        <mxCell id="6n01bUx9wQHi-D7Y9jeE-42" value="&lt;font style=&quot;font-size: 16px;&quot;&gt;$$ \ket{0}$$&lt;/font&gt;" style="text;html=1;align=center;verticalAlign=middle;resizable=0;points=[];autosize=1;strokeColor=none;fillColor=none;" vertex="1" parent="1">
          <mxGeometry x="500" y="384" width="110" height="30" as="geometry" />
        </mxCell>
        <mxCell id="6n01bUx9wQHi-D7Y9jeE-45" value="" style="curved=1;endArrow=none;html=1;rounded=0;strokeWidth=2;endFill=0;" edge="1" parent="1" target="6n01bUx9wQHi-D7Y9jeE-44">
          <mxGeometry width="50" height="50" relative="1" as="geometry">
            <mxPoint x="359" y="780" as="sourcePoint" />
            <mxPoint x="470" y="370" as="targetPoint" />
            <Array as="points">
              <mxPoint x="440" y="620" />
              <mxPoint x="470" y="550" />
            </Array>
          </mxGeometry>
        </mxCell>
        <mxCell id="6n01bUx9wQHi-D7Y9jeE-44" value="&lt;font style=&quot;font-size: 16px;&quot;&gt;$$ a_t \\ = \{ R_x,R_y, H , CX, ...\} $$&lt;/font&gt;" style="ellipse;whiteSpace=wrap;html=1;fillColor=#ffe6cc;strokeColor=#d79b00;" vertex="1" parent="1">
          <mxGeometry x="330" y="470" width="280" height="40" as="geometry" />
        </mxCell>
        <mxCell id="6n01bUx9wQHi-D7Y9jeE-48" value="" style="curved=1;endArrow=classic;html=1;rounded=0;strokeWidth=2;" edge="1" parent="1" source="6n01bUx9wQHi-D7Y9jeE-50">
          <mxGeometry width="50" height="50" relative="1" as="geometry">
            <mxPoint x="909" y="780" as="sourcePoint" />
            <mxPoint x="1020" y="370" as="targetPoint" />
            <Array as="points" />
          </mxGeometry>
        </mxCell>
        <mxCell id="6n01bUx9wQHi-D7Y9jeE-49" value="" style="curved=1;endArrow=none;html=1;rounded=0;strokeWidth=2;endFill=0;" edge="1" parent="1" target="6n01bUx9wQHi-D7Y9jeE-50">
          <mxGeometry width="50" height="50" relative="1" as="geometry">
            <mxPoint x="909" y="780" as="sourcePoint" />
            <mxPoint x="1020" y="370" as="targetPoint" />
            <Array as="points">
              <mxPoint x="990" y="620" />
              <mxPoint x="1020" y="550" />
            </Array>
          </mxGeometry>
        </mxCell>
        <mxCell id="6n01bUx9wQHi-D7Y9jeE-50" value="&lt;font style=&quot;font-size: 16px;&quot;&gt;$$ a_t \\ = \{ R_x,R_y, H , CX, ...\} $$&lt;/font&gt;" style="ellipse;whiteSpace=wrap;html=1;fillColor=#ffe6cc;strokeColor=#d79b00;" vertex="1" parent="1">
          <mxGeometry x="880" y="470" width="280" height="40" as="geometry" />
        </mxCell>
        <mxCell id="6n01bUx9wQHi-D7Y9jeE-51" value="" style="endArrow=classic;html=1;rounded=0;strokeWidth=2;shadow=0;curved=0;dashed=1;fillColor=#f5f5f5;strokeColor=#666666;" edge="1" parent="1">
          <mxGeometry width="50" height="50" relative="1" as="geometry">
            <mxPoint x="990.5" y="360" as="sourcePoint" />
            <mxPoint x="1049.5" y="360" as="targetPoint" />
          </mxGeometry>
        </mxCell>
        <mxCell id="6n01bUx9wQHi-D7Y9jeE-52" value="" style="shape=curlyBracket;whiteSpace=wrap;html=1;rounded=1;flipH=1;labelPosition=right;verticalLabelPosition=middle;align=left;verticalAlign=middle;strokeWidth=2;" vertex="1" parent="1">
          <mxGeometry x="308.5" y="740" width="21" height="88" as="geometry" />
        </mxCell>
        <mxCell id="6n01bUx9wQHi-D7Y9jeE-53" value="" style="shape=curlyBracket;whiteSpace=wrap;html=1;rounded=1;labelPosition=left;verticalLabelPosition=middle;align=right;verticalAlign=middle;strokeWidth=2;" vertex="1" parent="1">
          <mxGeometry x="98.5" y="738" width="20" height="90" as="geometry" />
        </mxCell>
        <mxCell id="6n01bUx9wQHi-D7Y9jeE-57" value="" style="endArrow=block;html=1;rounded=0;strokeWidth=2;endFill=1;" edge="1" parent="1" target="6n01bUx9wQHi-D7Y9jeE-55">
          <mxGeometry width="50" height="50" relative="1" as="geometry">
            <mxPoint x="130.25" y="670" as="sourcePoint" />
            <mxPoint x="110" y="710" as="targetPoint" />
          </mxGeometry>
        </mxCell>
        <mxCell id="6n01bUx9wQHi-D7Y9jeE-55" value="" style="shape=waypoint;sketch=0;size=6;pointerEvents=1;points=[];fillColor=none;resizable=0;rotatable=0;perimeter=centerPerimeter;snapToPoint=1;strokeWidth=0;strokeColor=#000000;" vertex="1" parent="1">
          <mxGeometry x="120" y="660" width="20" height="20" as="geometry" />
        </mxCell>
        <mxCell id="6n01bUx9wQHi-D7Y9jeE-61" value="" style="shape=waypoint;sketch=0;size=6;pointerEvents=1;points=[];fillColor=none;resizable=0;rotatable=0;perimeter=centerPerimeter;snapToPoint=1;strokeWidth=0;strokeColor=#000000;" vertex="1" parent="1">
          <mxGeometry x="180" y="660" width="20" height="20" as="geometry" />
        </mxCell>
        <mxCell id="6n01bUx9wQHi-D7Y9jeE-64" style="edgeStyle=orthogonalEdgeStyle;rounded=0;orthogonalLoop=1;jettySize=auto;html=1;entryX=0.616;entryY=0.491;entryDx=0;entryDy=0;entryPerimeter=0;" edge="1" parent="1">
          <mxGeometry relative="1" as="geometry">
            <mxPoint x="159" y="660" as="sourcePoint" />
            <mxPoint x="159" y="660" as="targetPoint" />
          </mxGeometry>
        </mxCell>
        <mxCell id="6n01bUx9wQHi-D7Y9jeE-66" value="" style="shape=waypoint;sketch=0;size=6;pointerEvents=1;points=[];fillColor=none;resizable=0;rotatable=0;perimeter=centerPerimeter;snapToPoint=1;strokeWidth=0;strokeColor=#000000;" vertex="1" parent="1">
          <mxGeometry x="149" y="620" width="20" height="20" as="geometry" />
        </mxCell>
        <mxCell id="6n01bUx9wQHi-D7Y9jeE-78" value="" style="endArrow=block;html=1;rounded=0;strokeWidth=2;endFill=1;" edge="1" parent="1">
          <mxGeometry width="50" height="50" relative="1" as="geometry">
            <mxPoint x="279.5" y="630" as="sourcePoint" />
            <mxPoint x="249.5" y="670" as="targetPoint" />
          </mxGeometry>
        </mxCell>
        <mxCell id="6n01bUx9wQHi-D7Y9jeE-79" value="" style="endArrow=block;html=1;rounded=0;strokeWidth=2;endFill=1;" edge="1" parent="1" source="6n01bUx9wQHi-D7Y9jeE-85">
          <mxGeometry width="50" height="50" relative="1" as="geometry">
            <mxPoint x="249.75" y="670" as="sourcePoint" />
            <mxPoint x="229.5" y="710" as="targetPoint" />
          </mxGeometry>
        </mxCell>
        <mxCell id="6n01bUx9wQHi-D7Y9jeE-80" value="" style="endArrow=block;html=1;rounded=0;strokeWidth=2;endFill=1;" edge="1" parent="1">
          <mxGeometry width="50" height="50" relative="1" as="geometry">
            <mxPoint x="279.5" y="630" as="sourcePoint" />
            <mxPoint x="309.5" y="670" as="targetPoint" />
          </mxGeometry>
        </mxCell>
        <mxCell id="6n01bUx9wQHi-D7Y9jeE-81" value="" style="endArrow=block;html=1;rounded=0;strokeWidth=2;endFill=1;" edge="1" parent="1">
          <mxGeometry width="50" height="50" relative="1" as="geometry">
            <mxPoint x="249.5" y="670" as="sourcePoint" />
            <mxPoint x="269.5" y="710" as="targetPoint" />
          </mxGeometry>
        </mxCell>
        <mxCell id="6n01bUx9wQHi-D7Y9jeE-82" value="" style="endArrow=block;html=1;rounded=0;strokeWidth=2;endFill=1;" edge="1" parent="1">
          <mxGeometry width="50" height="50" relative="1" as="geometry">
            <mxPoint x="309.5" y="670" as="sourcePoint" />
            <mxPoint x="289.5" y="710" as="targetPoint" />
          </mxGeometry>
        </mxCell>
        <mxCell id="6n01bUx9wQHi-D7Y9jeE-83" value="" style="endArrow=block;html=1;rounded=0;strokeWidth=2;endFill=1;" edge="1" parent="1">
          <mxGeometry width="50" height="50" relative="1" as="geometry">
            <mxPoint x="309.5" y="670" as="sourcePoint" />
            <mxPoint x="330" y="710" as="targetPoint" />
          </mxGeometry>
        </mxCell>
        <mxCell id="6n01bUx9wQHi-D7Y9jeE-84" value="" style="endArrow=block;html=1;rounded=0;strokeWidth=2;endFill=1;" edge="1" parent="1" target="6n01bUx9wQHi-D7Y9jeE-85">
          <mxGeometry width="50" height="50" relative="1" as="geometry">
            <mxPoint x="249.75" y="670" as="sourcePoint" />
            <mxPoint x="229.5" y="710" as="targetPoint" />
          </mxGeometry>
        </mxCell>
        <mxCell id="6n01bUx9wQHi-D7Y9jeE-85" value="" style="shape=waypoint;sketch=0;size=6;pointerEvents=1;points=[];fillColor=none;resizable=0;rotatable=0;perimeter=centerPerimeter;snapToPoint=1;strokeWidth=0;strokeColor=#000000;" vertex="1" parent="1">
          <mxGeometry x="239.5" y="660" width="20" height="20" as="geometry" />
        </mxCell>
        <mxCell id="6n01bUx9wQHi-D7Y9jeE-86" value="" style="shape=waypoint;sketch=0;size=6;pointerEvents=1;points=[];fillColor=none;resizable=0;rotatable=0;perimeter=centerPerimeter;snapToPoint=1;strokeWidth=0;strokeColor=#000000;" vertex="1" parent="1">
          <mxGeometry x="299.5" y="660" width="20" height="20" as="geometry" />
        </mxCell>
        <mxCell id="6n01bUx9wQHi-D7Y9jeE-87" style="edgeStyle=orthogonalEdgeStyle;rounded=0;orthogonalLoop=1;jettySize=auto;html=1;entryX=0.616;entryY=0.491;entryDx=0;entryDy=0;entryPerimeter=0;" edge="1" parent="1">
          <mxGeometry relative="1" as="geometry">
            <mxPoint x="278.5" y="660" as="sourcePoint" />
            <mxPoint x="278.5" y="660" as="targetPoint" />
          </mxGeometry>
        </mxCell>
        <mxCell id="6n01bUx9wQHi-D7Y9jeE-88" value="" style="shape=waypoint;sketch=0;size=6;pointerEvents=1;points=[];fillColor=none;resizable=0;rotatable=0;perimeter=centerPerimeter;snapToPoint=1;strokeWidth=0;strokeColor=#000000;" vertex="1" parent="1">
          <mxGeometry x="268.5" y="620" width="20" height="20" as="geometry" />
        </mxCell>
        <mxCell id="6n01bUx9wQHi-D7Y9jeE-89" value="" style="endArrow=block;html=1;rounded=0;exitX=0.5;exitY=1;exitDx=0;exitDy=0;strokeWidth=2;curved=0;endFill=1;" edge="1" parent="1">
          <mxGeometry width="50" height="50" relative="1" as="geometry">
            <mxPoint x="779" y="550" as="sourcePoint" />
            <mxPoint x="719" y="630" as="targetPoint" />
          </mxGeometry>
        </mxCell>
        <mxCell id="6n01bUx9wQHi-D7Y9jeE-90" value="" style="endArrow=block;html=1;rounded=0;strokeWidth=2;endFill=1;" edge="1" parent="1">
          <mxGeometry width="50" height="50" relative="1" as="geometry">
            <mxPoint x="719" y="630" as="sourcePoint" />
            <mxPoint x="689" y="670" as="targetPoint" />
          </mxGeometry>
        </mxCell>
        <mxCell id="6n01bUx9wQHi-D7Y9jeE-91" value="" style="endArrow=block;html=1;rounded=0;strokeWidth=2;endFill=1;" edge="1" parent="1" source="6n01bUx9wQHi-D7Y9jeE-98">
          <mxGeometry width="50" height="50" relative="1" as="geometry">
            <mxPoint x="689.25" y="670" as="sourcePoint" />
            <mxPoint x="669" y="710" as="targetPoint" />
          </mxGeometry>
        </mxCell>
        <mxCell id="6n01bUx9wQHi-D7Y9jeE-92" value="" style="endArrow=block;html=1;rounded=0;strokeWidth=2;endFill=1;" edge="1" parent="1">
          <mxGeometry width="50" height="50" relative="1" as="geometry">
            <mxPoint x="779" y="550" as="sourcePoint" />
            <mxPoint x="839" y="630" as="targetPoint" />
          </mxGeometry>
        </mxCell>
        <mxCell id="6n01bUx9wQHi-D7Y9jeE-93" value="" style="endArrow=block;html=1;rounded=0;strokeWidth=2;endFill=1;" edge="1" parent="1">
          <mxGeometry width="50" height="50" relative="1" as="geometry">
            <mxPoint x="719" y="630" as="sourcePoint" />
            <mxPoint x="749" y="670" as="targetPoint" />
          </mxGeometry>
        </mxCell>
        <mxCell id="6n01bUx9wQHi-D7Y9jeE-94" value="" style="endArrow=block;html=1;rounded=0;strokeWidth=2;endFill=1;" edge="1" parent="1">
          <mxGeometry width="50" height="50" relative="1" as="geometry">
            <mxPoint x="689" y="670" as="sourcePoint" />
            <mxPoint x="709" y="710" as="targetPoint" />
          </mxGeometry>
        </mxCell>
        <mxCell id="6n01bUx9wQHi-D7Y9jeE-95" value="" style="endArrow=block;html=1;rounded=0;strokeWidth=2;endFill=1;" edge="1" parent="1">
          <mxGeometry width="50" height="50" relative="1" as="geometry">
            <mxPoint x="749" y="670" as="sourcePoint" />
            <mxPoint x="729" y="710" as="targetPoint" />
          </mxGeometry>
        </mxCell>
        <mxCell id="6n01bUx9wQHi-D7Y9jeE-96" value="" style="endArrow=block;html=1;rounded=0;strokeWidth=2;endFill=1;" edge="1" parent="1">
          <mxGeometry width="50" height="50" relative="1" as="geometry">
            <mxPoint x="749" y="670" as="sourcePoint" />
            <mxPoint x="769.5" y="710" as="targetPoint" />
          </mxGeometry>
        </mxCell>
        <mxCell id="6n01bUx9wQHi-D7Y9jeE-97" value="" style="endArrow=block;html=1;rounded=0;strokeWidth=2;endFill=1;" edge="1" parent="1" target="6n01bUx9wQHi-D7Y9jeE-98">
          <mxGeometry width="50" height="50" relative="1" as="geometry">
            <mxPoint x="689.25" y="670" as="sourcePoint" />
            <mxPoint x="669" y="710" as="targetPoint" />
          </mxGeometry>
        </mxCell>
        <mxCell id="6n01bUx9wQHi-D7Y9jeE-98" value="" style="shape=waypoint;sketch=0;size=6;pointerEvents=1;points=[];fillColor=none;resizable=0;rotatable=0;perimeter=centerPerimeter;snapToPoint=1;strokeWidth=0;strokeColor=#000000;" vertex="1" parent="1">
          <mxGeometry x="679" y="660" width="20" height="20" as="geometry" />
        </mxCell>
        <mxCell id="6n01bUx9wQHi-D7Y9jeE-99" value="" style="shape=waypoint;sketch=0;size=6;pointerEvents=1;points=[];fillColor=none;resizable=0;rotatable=0;perimeter=centerPerimeter;snapToPoint=1;strokeWidth=0;strokeColor=#000000;" vertex="1" parent="1">
          <mxGeometry x="739" y="660" width="20" height="20" as="geometry" />
        </mxCell>
        <mxCell id="6n01bUx9wQHi-D7Y9jeE-100" style="edgeStyle=orthogonalEdgeStyle;rounded=0;orthogonalLoop=1;jettySize=auto;html=1;entryX=0.616;entryY=0.491;entryDx=0;entryDy=0;entryPerimeter=0;" edge="1" parent="1">
          <mxGeometry relative="1" as="geometry">
            <mxPoint x="718" y="660" as="sourcePoint" />
            <mxPoint x="718" y="660" as="targetPoint" />
          </mxGeometry>
        </mxCell>
        <mxCell id="6n01bUx9wQHi-D7Y9jeE-101" value="" style="shape=waypoint;sketch=0;size=6;pointerEvents=1;points=[];fillColor=none;resizable=0;rotatable=0;perimeter=centerPerimeter;snapToPoint=1;strokeWidth=0;strokeColor=#000000;" vertex="1" parent="1">
          <mxGeometry x="708" y="620" width="20" height="20" as="geometry" />
        </mxCell>
        <mxCell id="6n01bUx9wQHi-D7Y9jeE-102" value="" style="endArrow=block;html=1;rounded=0;strokeWidth=2;endFill=1;" edge="1" parent="1">
          <mxGeometry width="50" height="50" relative="1" as="geometry">
            <mxPoint x="838.5" y="630" as="sourcePoint" />
            <mxPoint x="808.5" y="670" as="targetPoint" />
          </mxGeometry>
        </mxCell>
        <mxCell id="6n01bUx9wQHi-D7Y9jeE-103" value="" style="endArrow=block;html=1;rounded=0;strokeWidth=2;endFill=1;" edge="1" parent="1" source="6n01bUx9wQHi-D7Y9jeE-109">
          <mxGeometry width="50" height="50" relative="1" as="geometry">
            <mxPoint x="808.75" y="670" as="sourcePoint" />
            <mxPoint x="788.5" y="710" as="targetPoint" />
          </mxGeometry>
        </mxCell>
        <mxCell id="6n01bUx9wQHi-D7Y9jeE-104" value="" style="endArrow=block;html=1;rounded=0;strokeWidth=2;endFill=1;" edge="1" parent="1">
          <mxGeometry width="50" height="50" relative="1" as="geometry">
            <mxPoint x="838.5" y="630" as="sourcePoint" />
            <mxPoint x="868.5" y="670" as="targetPoint" />
          </mxGeometry>
        </mxCell>
        <mxCell id="6n01bUx9wQHi-D7Y9jeE-105" value="" style="endArrow=block;html=1;rounded=0;strokeWidth=2;endFill=1;" edge="1" parent="1">
          <mxGeometry width="50" height="50" relative="1" as="geometry">
            <mxPoint x="808.5" y="670" as="sourcePoint" />
            <mxPoint x="828.5" y="710" as="targetPoint" />
          </mxGeometry>
        </mxCell>
        <mxCell id="6n01bUx9wQHi-D7Y9jeE-106" value="" style="endArrow=block;html=1;rounded=0;strokeWidth=2;endFill=1;" edge="1" parent="1">
          <mxGeometry width="50" height="50" relative="1" as="geometry">
            <mxPoint x="868.5" y="670" as="sourcePoint" />
            <mxPoint x="848.5" y="710" as="targetPoint" />
          </mxGeometry>
        </mxCell>
        <mxCell id="6n01bUx9wQHi-D7Y9jeE-107" value="" style="endArrow=block;html=1;rounded=0;strokeWidth=2;endFill=1;" edge="1" parent="1">
          <mxGeometry width="50" height="50" relative="1" as="geometry">
            <mxPoint x="868.5" y="670" as="sourcePoint" />
            <mxPoint x="889" y="710" as="targetPoint" />
          </mxGeometry>
        </mxCell>
        <mxCell id="6n01bUx9wQHi-D7Y9jeE-108" value="" style="endArrow=block;html=1;rounded=0;strokeWidth=2;endFill=1;" edge="1" parent="1" target="6n01bUx9wQHi-D7Y9jeE-109">
          <mxGeometry width="50" height="50" relative="1" as="geometry">
            <mxPoint x="808.75" y="670" as="sourcePoint" />
            <mxPoint x="788.5" y="710" as="targetPoint" />
          </mxGeometry>
        </mxCell>
        <mxCell id="6n01bUx9wQHi-D7Y9jeE-109" value="" style="shape=waypoint;sketch=0;size=6;pointerEvents=1;points=[];fillColor=none;resizable=0;rotatable=0;perimeter=centerPerimeter;snapToPoint=1;strokeWidth=0;strokeColor=#000000;" vertex="1" parent="1">
          <mxGeometry x="798.5" y="660" width="20" height="20" as="geometry" />
        </mxCell>
        <mxCell id="6n01bUx9wQHi-D7Y9jeE-110" value="" style="shape=waypoint;sketch=0;size=6;pointerEvents=1;points=[];fillColor=none;resizable=0;rotatable=0;perimeter=centerPerimeter;snapToPoint=1;strokeWidth=0;strokeColor=#000000;" vertex="1" parent="1">
          <mxGeometry x="858.5" y="660" width="20" height="20" as="geometry" />
        </mxCell>
        <mxCell id="6n01bUx9wQHi-D7Y9jeE-111" style="edgeStyle=orthogonalEdgeStyle;rounded=0;orthogonalLoop=1;jettySize=auto;html=1;entryX=0.616;entryY=0.491;entryDx=0;entryDy=0;entryPerimeter=0;" edge="1" parent="1">
          <mxGeometry relative="1" as="geometry">
            <mxPoint x="837.5" y="660" as="sourcePoint" />
            <mxPoint x="837.5" y="660" as="targetPoint" />
          </mxGeometry>
        </mxCell>
        <mxCell id="6n01bUx9wQHi-D7Y9jeE-112" value="" style="shape=waypoint;sketch=0;size=6;pointerEvents=1;points=[];fillColor=none;resizable=0;rotatable=0;perimeter=centerPerimeter;snapToPoint=1;strokeWidth=0;strokeColor=#000000;" vertex="1" parent="1">
          <mxGeometry x="827.5" y="620" width="20" height="20" as="geometry" />
        </mxCell>
        <mxCell id="6n01bUx9wQHi-D7Y9jeE-113" value="&lt;font style=&quot;font-size: 16px;&quot;&gt;&lt;br&gt;&lt;span style=&quot;color: rgb(0, 0, 0); font-family: Helvetica; font-style: normal; font-variant-ligatures: normal; font-variant-caps: normal; font-weight: 400; letter-spacing: normal; orphans: 2; text-align: center; text-indent: 0px; text-transform: none; widows: 2; word-spacing: 0px; -webkit-text-stroke-width: 0px; background-color: rgb(251, 251, 251); text-decoration-thickness: initial; text-decoration-style: initial; text-decoration-color: initial; float: none; display: inline !important;&quot;&gt;$$&amp;nbsp;K^{\rm PQK}(x,x^\prime)= \exp\left(-\gamma\sum_{k,P}\left\lbrace\mathrm{tr}&lt;br&gt;[P\rho_k(x)] - \mathrm{tr}[P\rho_k(x^\prime)]\right\rbrace^2\right)\ $$&lt;/span&gt;&lt;br&gt;&lt;/font&gt;" style="verticalLabelPosition=middle;verticalAlign=middle;html=1;shape=mxgraph.basic.patternFillRect;fillStyle=diag;step=5;fillStrokeWidth=0.2;fillStrokeColor=#dddddd;fillColor=#e1d5e7;strokeColor=#CDA2BE;gradientColor=#CDA2BE;strokeWidth=2;labelPosition=center;align=center;" vertex="1" parent="1">
          <mxGeometry x="9" y="40" width="481" height="80" as="geometry" />
        </mxCell>
        <mxCell id="6n01bUx9wQHi-D7Y9jeE-114" value="&lt;font style=&quot;font-size: 16px;&quot;&gt;$$ \mathrm{Projected Quantum Kernel} $$&lt;/font&gt;" style="text;html=1;align=center;verticalAlign=middle;resizable=0;points=[];autosize=1;strokeColor=none;fillColor=none;" vertex="1" parent="1">
          <mxGeometry x="-30.5" y="10" width="330" height="30" as="geometry" />
        </mxCell>
        <mxCell id="6n01bUx9wQHi-D7Y9jeE-115" value="" style="curved=1;endArrow=classic;html=1;rounded=0;entryX=0.468;entryY=1.014;entryDx=0;entryDy=0;entryPerimeter=0;strokeWidth=2;" edge="1" parent="1" target="6n01bUx9wQHi-D7Y9jeE-113">
          <mxGeometry width="50" height="50" relative="1" as="geometry">
            <mxPoint x="220" y="280" as="sourcePoint" />
            <mxPoint x="268.5" y="210" as="targetPoint" />
            <Array as="points">
              <mxPoint x="210" y="260" />
              <mxPoint x="218.5" y="210" />
            </Array>
          </mxGeometry>
        </mxCell>
      </root>
    </mxGraphModel>
  </diagram>
</mxfile>
